<svg width="100" height="100" viewBox="0 0 100 100" fill="none" xmlns="http://www.w3.org/2000/svg">
<g clip-path="url(#clip0_1069_826)">
<path fill-rule="evenodd" clip-rule="evenodd" d="M188.235 186.275H196.078V188.235H188.235V196.078H186.275V188.235H168.627V196.078H166.667V188.235H149.02V196.078H147.059V188.235H129.412V196.078H127.451V188.235H109.804V196.078H107.843V188.235H90.1961V196.078H88.2353V188.235H70.5882V196.078H68.6275V188.235H50.9804V196.078H49.0196V188.235H31.3725V196.078H29.4118V188.235H0V186.275H29.4118V168.627H0V166.667H29.4118V149.02H0V147.059H29.4118V129.412H0V127.451H29.4118V109.804H0V107.843H29.4118V90.1961H0V88.2353H29.4118V70.5882H0V68.6275H29.4118V50.9804H0V49.0196H29.4118V31.3725H0V29.4118H29.4118V0H31.3725V29.4118H49.0196V0H50.9804V29.4118H68.6275V0H70.5882V29.4118H88.2353V0H90.1961V29.4118H107.843V0H109.804V29.4118H127.451V0H129.412V29.4118H147.059V0H149.02V29.4118H166.667V0H168.627V29.4118H186.275V0H188.235V29.4118H196.078V31.3725H188.235V49.0196H196.078V50.9804H188.235V68.6275H196.078V70.5882H188.235V88.2353H196.078V90.1961H188.235V107.843H196.078V109.804H188.235V127.451H196.078V129.412H188.235V147.059H196.078V149.02H188.235V166.667H196.078V168.627H188.235V186.275ZM186.275 186.275V168.627H168.627V186.275H186.275ZM166.667 186.275V168.627H149.02V186.275H166.667ZM147.059 186.275V168.627H129.412V186.275H147.059ZM127.451 186.275V168.627H109.804V186.275H127.451ZM107.843 186.275V168.627H90.1961V186.275H107.843ZM88.2353 186.275V168.627H70.5882V186.275H88.2353ZM68.6275 186.275V168.627H50.9804V186.275H68.6275ZM49.0196 186.275V168.627H31.3725V186.275H49.0196ZM31.3725 166.667H49.0196V149.02H31.3725V166.667ZM50.9804 166.667H68.6275V149.02H50.9804V166.667ZM70.5882 166.667H88.2353V149.02H70.5882V166.667ZM90.1961 166.667H107.843V149.02H90.1961V166.667ZM109.804 166.667H127.451V149.02H109.804V166.667ZM129.412 166.667H147.059V149.02H129.412V166.667ZM149.02 166.667H166.667V149.02H149.02V166.667ZM168.627 166.667H186.275V149.02H168.627V166.667ZM186.275 147.059V129.412H168.627V147.059H186.275ZM166.667 147.059V129.412H149.02V147.059H166.667ZM147.059 147.059V129.412H129.412V147.059H147.059ZM127.451 147.059V129.412H109.804V147.059H127.451ZM107.843 147.059V129.412H90.1961V147.059H107.843ZM88.2353 147.059V129.412H70.5882V147.059H88.2353ZM68.6275 147.059V129.412H50.9804V147.059H68.6275ZM49.0196 147.059V129.412H31.3725V147.059H49.0196ZM31.3725 127.451H49.0196V109.804H31.3725V127.451ZM50.9804 127.451H68.6275V109.804H50.9804V127.451ZM70.5882 127.451H88.2353V109.804H70.5882V127.451ZM90.1961 127.451H107.843V109.804H90.1961V127.451ZM109.804 127.451H127.451V109.804H109.804V127.451ZM129.412 127.451H147.059V109.804H129.412V127.451ZM149.02 127.451H166.667V109.804H149.02V127.451ZM168.627 127.451H186.275V109.804H168.627V127.451ZM186.275 107.843V90.1961H168.627V107.843H186.275ZM166.667 107.843V90.1961H149.02V107.843H166.667ZM147.059 107.843V90.1961H129.412V107.843H147.059ZM127.451 107.843V90.1961H109.804V107.843H127.451ZM107.843 107.843V90.1961H90.1961V107.843H107.843ZM88.2353 107.843V90.1961H70.5882V107.843H88.2353ZM68.6275 107.843V90.1961H50.9804V107.843H68.6275ZM49.0196 107.843V90.1961H31.3725V107.843H49.0196ZM31.3725 88.2353H49.0196V70.5882H31.3725V88.2353ZM50.9804 88.2353H68.6275V70.5882H50.9804V88.2353ZM70.5882 88.2353H88.2353V70.5882H70.5882V88.2353ZM90.1961 88.2353H107.843V70.5882H90.1961V88.2353ZM109.804 88.2353H127.451V70.5882H109.804V88.2353ZM129.412 88.2353H147.059V70.5882H129.412V88.2353ZM149.02 88.2353H166.667V70.5882H149.02V88.2353ZM168.627 88.2353H186.275V70.5882H168.627V88.2353ZM186.275 68.6275V50.9804H168.627V68.6275H186.275ZM166.667 68.6275V50.9804H149.02V68.6275H166.667ZM147.059 68.6275V50.9804H129.412V68.6275H147.059ZM127.451 68.6275V50.9804H109.804V68.6275H127.451ZM107.843 68.6275V50.9804H90.1961V68.6275H107.843ZM88.2353 68.6275V50.9804H70.5882V68.6275H88.2353ZM68.6275 68.6275V50.9804H50.9804V68.6275H68.6275ZM49.0196 68.6275V50.9804H31.3725V68.6275H49.0196ZM31.3725 49.0196H49.0196V31.3725H31.3725V49.0196ZM50.9804 49.0196H68.6275V31.3725H50.9804V49.0196ZM70.5882 49.0196H88.2353V31.3725H70.5882V49.0196ZM90.1961 49.0196H107.843V31.3725H90.1961V49.0196ZM109.804 49.0196H127.451V31.3725H109.804V49.0196ZM129.412 49.0196H147.059V31.3725H129.412V49.0196ZM149.02 49.0196H166.667V31.3725H149.02V49.0196ZM168.627 49.0196H186.275V31.3725H168.627V49.0196Z" fill="#444444"/>
<path fill-rule="evenodd" clip-rule="evenodd" d="M11.7647 9.80392V0H9.80392V9.80392H0V11.7647H9.80392V196.078H11.7647V11.7647H196.078V9.80392H11.7647Z" fill="#444444"/>
</g>
<defs>
<clipPath id="clip0_1069_826">
<rect width="100" height="100" fill="white"/>
</clipPath>
</defs>
</svg>
