<svg width="26" height="31" viewBox="0 0 26 31" fill="none" xmlns="http://www.w3.org/2000/svg">
<g filter="url(#filter0_d_679_270)">
<path d="M17.75 10.5V9.375C17.75 8.87772 17.5524 8.40081 17.2008 8.04917C16.8492 7.69754 16.3722 7.5 15.875 7.5C15.3777 7.5 14.9008 7.69754 14.5491 8.04917C14.1975 8.40081 14 8.87772 14 9.375V3.375C14 2.87772 13.8024 2.40081 13.4508 2.04917C13.0992 1.69754 12.6222 1.5 12.125 1.5C11.6277 1.5 11.1508 1.69754 10.7991 2.04917C10.4475 2.40081 10.25 2.87772 10.25 3.375V14.7469L8.19683 11.1844C7.94819 10.753 7.53837 10.438 7.05751 10.3088C6.57666 10.1796 6.06416 10.2467 5.63277 10.4953C5.20138 10.744 4.88643 11.1538 4.7572 11.6346C4.62798 12.1155 4.69507 12.628 4.94371 13.0594C7.99996 19.5 9.85621 21.75 14 21.75C14.9849 21.75 15.9601 21.556 16.8701 21.1791C17.78 20.8022 18.6068 20.2497 19.3033 19.5533C19.9997 18.8569 20.5521 18.0301 20.9291 17.1201C21.306 16.2102 21.5 15.2349 21.5 14.25V10.5C21.5 10.0027 21.3024 9.52581 20.9508 9.17417C20.5992 8.82254 20.1222 8.625 19.625 8.625C19.1277 8.625 18.6508 8.82254 18.2991 9.17417C17.9475 9.52581 17.75 10.0027 17.75 10.5V10.5Z" fill="#111111"/>
<path d="M17.75 10.5V9.375C17.75 8.87772 17.5524 8.40081 17.2008 8.04917C16.8492 7.69754 16.3722 7.5 15.875 7.5C15.3777 7.5 14.9008 7.69754 14.5491 8.04917C14.1975 8.40081 14 8.87772 14 9.375V3.375C14 2.87772 13.8024 2.40081 13.4508 2.04917C13.0992 1.69754 12.6222 1.5 12.125 1.5C11.6277 1.5 11.1508 1.69754 10.7991 2.04917C10.4475 2.40081 10.25 2.87772 10.25 3.375V14.7469L8.19683 11.1844C7.94819 10.753 7.53837 10.438 7.05751 10.3088C6.57666 10.1796 6.06416 10.2467 5.63277 10.4953C5.20138 10.744 4.88643 11.1538 4.7572 11.6346C4.62798 12.1155 4.69507 12.628 4.94371 13.0594C7.99996 19.5 9.85621 21.75 14 21.75C14.9849 21.75 15.9601 21.556 16.8701 21.1791C17.78 20.8022 18.6068 20.2497 19.3033 19.5533C19.9997 18.8569 20.5521 18.0301 20.9291 17.1201C21.306 16.2102 21.5 15.2349 21.5 14.25V10.5C21.5 10.0027 21.3024 9.52581 20.9508 9.17417C20.5992 8.82254 20.1222 8.625 19.625 8.625C19.1277 8.625 18.6508 8.82254 18.2991 9.17417C17.9475 9.52581 17.75 10.0027 17.75 10.5V10.5Z" stroke="#FAFCFC" stroke-linecap="round" stroke-linejoin="round"/>
</g>
<defs>
<filter id="filter0_d_679_270" x="0.192871" y="1" width="25.8071" height="29.25" filterUnits="userSpaceOnUse" color-interpolation-filters="sRGB">
<feFlood flood-opacity="0" result="BackgroundImageFix"/>
<feColorMatrix in="SourceAlpha" type="matrix" values="0 0 0 0 0 0 0 0 0 0 0 0 0 0 0 0 0 0 127 0" result="hardAlpha"/>
<feOffset dy="4"/>
<feGaussianBlur stdDeviation="2"/>
<feComposite in2="hardAlpha" operator="out"/>
<feColorMatrix type="matrix" values="0 0 0 0 0 0 0 0 0 0 0 0 0 0 0 0 0 0 0.25 0"/>
<feBlend mode="normal" in2="BackgroundImageFix" result="effect1_dropShadow_679_270"/>
<feBlend mode="normal" in="SourceGraphic" in2="effect1_dropShadow_679_270" result="shape"/>
</filter>
</defs>
</svg>
