<svg width="780" height="472" viewBox="0 0 780 472" fill="none" xmlns="http://www.w3.org/2000/svg">
<mask id="path-1-inside-1_1156_1695" fill="white">
<path fill-rule="evenodd" clip-rule="evenodd" d="M764 0H780V16H774.414V456H780V472H764V465.139H16V472H0V456H5.68042V16H0V0H16V4.57007H764V0ZM7.68042 16H16V6.57007H764V16H772.414V456H764V463.139H16V456H7.68042V16Z"/>
</mask>
<path fill-rule="evenodd" clip-rule="evenodd" d="M764 0H780V16H774.414V456H780V472H764V465.139H16V472H0V456H5.68042V16H0V0H16V4.57007H764V0ZM7.68042 16H16V6.57007H764V16H772.414V456H764V463.139H16V456H7.68042V16Z" fill="#FAFCFC"/>
<path d="M780 0H782V-2H780V0ZM764 0V-2H762V0H764ZM780 16V18H782V16H780ZM774.414 16V14H772.414V16H774.414ZM774.414 456H772.414V458H774.414V456ZM780 456H782V454H780V456ZM780 472V474H782V472H780ZM764 472H762V474H764V472ZM764 465.139H766V463.139H764V465.139ZM16 465.139V463.139H14V465.139H16ZM16 472V474H18V472H16ZM0 472H-2V474H0V472ZM0 456V454H-2V456H0ZM5.68042 456V458H7.68042V456H5.68042ZM5.68042 16H7.68042V14H5.68042V16ZM0 16H-2V18H0V16ZM0 0V-2H-2V0H0ZM16 0H18V-2H16V0ZM16 4.57007H14V6.57007H16V4.57007ZM764 4.57007V6.57007H766V4.57007H764ZM16 16V18H18V16H16ZM7.68042 16V14H5.68042V16H7.68042ZM16 6.57007V4.57007H14V6.57007H16ZM764 6.57007H766V4.57007H764V6.57007ZM764 16H762V18H764V16ZM772.414 16H774.414V14H772.414V16ZM772.414 456V458H774.414V456H772.414ZM764 456V454H762V456H764ZM764 463.139V465.139H766V463.139H764ZM16 463.139H14V465.139H16V463.139ZM16 456H18V454H16V456ZM7.68042 456H5.68042V458H7.68042V456ZM780 -2H764V2H780V-2ZM782 16V0H778V16H782ZM774.414 18H780V14H774.414V18ZM776.414 456V16H772.414V456H776.414ZM780 454H774.414V458H780V454ZM782 472V456H778V472H782ZM764 474H780V470H764V474ZM762 465.139V472H766V465.139H762ZM16 467.139H764V463.139H16V467.139ZM18 472V465.139H14V472H18ZM0 474H16V470H0V474ZM-2 456V472H2V456H-2ZM5.68042 454H0V458H5.68042V454ZM3.68042 16V456H7.68042V16H3.68042ZM5.68042 14H0V18H5.68042V14ZM2 16V0H-2V16H2ZM0 2H16V-2H0V2ZM14 0V4.57007H18V0H14ZM764 2.57007H16V6.57007H764V2.57007ZM762 0V4.57007H766V0H762ZM16 14H7.68042V18H16V14ZM14 6.57007V16H18V6.57007H14ZM16 8.57007H764V4.57007H16V8.57007ZM762 6.57007V16H766V6.57007H762ZM764 18H772.414V14H764V18ZM770.414 16V456H774.414V16H770.414ZM772.414 454H764V458H772.414V454ZM762 456V463.139H766V456H762ZM764 461.139H16V465.139H764V461.139ZM18 463.139V456H14V463.139H18ZM16 454H7.68042V458H16V454ZM9.68042 456V16H5.68042V456H9.68042Z" fill="#E10234" mask="url(#path-1-inside-1_1156_1695)"/>
</svg>
