<svg width="1920" height="1080" viewBox="0 0 1920 1080" fill="none" xmlns="http://www.w3.org/2000/svg">
<rect x="-7" y="145" width="1922" height="1080" fill="#050607"/>
<path d="M960.209 2339.96L960.209 382.802" stroke="#87021B" stroke-width="1.5"/>
<path d="M1876.29 2181.66L960.614 382.589" stroke="#87021B" stroke-width="1.5"/>
<path d="M3003.42 2389L960.21 382.813" stroke="#87021B" stroke-width="1.5"/>
<path d="M2936.09 1685.02L960.503 382.363" stroke="#87021B" stroke-width="1.5"/>
<path d="M2026.84 909.118L960.502 382.363" stroke="#87021B" stroke-width="1.5"/>
<path d="M2118.9 846.081L960.503 382.363" stroke="#87021B" stroke-width="1.5"/>
<path d="M2188.94 790.047L960.502 382.362" stroke="#87021B" stroke-width="1.5"/>
<path d="M2244.97 750.024L960.502 382.363" stroke="#87021B" stroke-width="1.5"/>
<path d="M2278.99 712.001L960.503 382.363" stroke="#87021B" stroke-width="1.5"/>
<path d="M44.124 2181.43L960.614 382" stroke="#87021B" stroke-width="1.5"/>
<path d="M-1083 2388.78L960.209 382.59" stroke="#87021B" stroke-width="1.5"/>
<path d="M-1015.67 1684.8L959.917 382.139" stroke="#87021B" stroke-width="1.5"/>
<path d="M-106.422 908.894L959.917 382.139" stroke="#87021B" stroke-width="1.5"/>
<path d="M-198.477 845.857L959.916 382.139" stroke="#87021B" stroke-width="1.5"/>
<path d="M-268.519 789.824L959.916 382.139" stroke="#87021B" stroke-width="1.5"/>
<path d="M-324.551 749.8L959.917 382.139" stroke="#87021B" stroke-width="1.5"/>
<path d="M-358.571 711.778L959.917 382.139" stroke="#87021B" stroke-width="1.5"/>
<path d="M-225.492 1050.19L1919.78 1050.19" stroke="#87021B" stroke-width="1.5"/>
<path d="M-203.479 959.136L1941.79 959.136" stroke="#87021B" stroke-width="1.5"/>
<path d="M-189.471 890.095L1956.8 890.095" stroke="#87021B" stroke-width="1.5"/>
<path d="M-182.467 836.063L1962.8 836.063" stroke="#87021B" stroke-width="1.5"/>
<path d="M-176.463 793.037L1969.81 793.037" stroke="#87021B" stroke-width="1.5"/>
<path d="M-167.458 758.017L1977.81 758.017" stroke="#87021B" stroke-width="1.5"/>
<path d="M-148.445 726.999L1996.82 726.999" stroke="#87021B" stroke-width="1.5"/>
<path d="M-134.438 701.984L2010.83 701.984" stroke="#87021B" stroke-width="1.5"/>
<path d="M-126.433 678.97L2018.84 678.97" stroke="#87021B" stroke-width="1.5"/>
<path d="M-126.433 658.958L2018.84 658.958" stroke="#87021B" stroke-width="1.5"/>
<path d="M-156.451 643.949L1988.82 643.949" stroke="#87021B" stroke-width="1.5"/>
<path d="M-156.451 628.94L1988.82 628.94" stroke="#87021B" stroke-width="1.5"/>
<path d="M-156.451 615.933L1988.82 615.933" stroke="#87021B" stroke-width="1.5"/>
<path d="M-156.451 603.926L1988.82 603.926" stroke="#87021B" stroke-width="1.5"/>
<path d="M-156.451 592.919L1988.82 592.919" stroke="#87021B" stroke-width="1.5"/>
<path d="M-156.451 583.914L1988.82 583.914" stroke="#87021B" stroke-width="1.5"/>
<path d="M-156.451 574.908L1988.82 574.908" stroke="#87021B" stroke-width="1.5"/>
<path d="M-156.451 566.904L1988.82 566.904" stroke="#87021B" stroke-width="1.5"/>
<path d="M-156.451 559.9L1988.82 559.9" stroke="#87021B" stroke-width="1.5"/>
<path d="M-156.451 552.895L1988.82 552.895" stroke="#87021B" stroke-width="1.5"/>
<path d="M-156.451 546.892L1988.82 546.892" stroke="#87021B" stroke-width="1.5"/>
<path d="M-156.451 540.888L1988.82 540.888" stroke="#87021B" stroke-width="1.5"/>
<path d="M-156.451 534.885L1988.82 534.885" stroke="#87021B" stroke-width="1.5"/>
<path d="M-156.451 529.882L1988.82 529.882" stroke="#87021B" stroke-width="1.5"/>
<path d="M-156.451 524.879L1988.82 524.879" stroke="#87021B" stroke-width="1.5"/>
<path d="M-156.451 520.876L1988.82 520.876" stroke="#87021B" stroke-width="1.5"/>
<path d="M-156.451 515.874L1988.82 515.874" stroke="#87021B" stroke-width="1.5"/>
<rect width="1920" height="515" fill="url(#paint0_linear)"/>
<rect x="-2" width="1922" height="1080" fill="black" fill-opacity="0.6"/>
<g filter="url(#filter0_f)">
<path d="M73.3966 313.836L0 294.269V515H1920V239L1805.46 303.194L1769.47 294.269L1756.84 267.836L1715.7 294.269L1656.8 313.836L1579.66 294.269L1517.02 283.627L1436.14 267.836L1379.11 294.269L1271.59 326.881L1176.68 337.522H1115.91C1087.86 346.333 1029.89 366.015 1022.41 374.254C1013.06 384.552 924.237 394.164 915.354 392.791C906.472 391.418 836.348 342.672 827.465 337.522C820.359 333.403 738.486 306.97 698.437 294.269L496.012 313.836L458.612 283.627L399.24 267.836H234.682L148.663 283.627L73.3966 313.836Z" fill="#E10234" fill-opacity="0.1"/>
</g>
<path d="M2125.91 400.692L2193.03 351.882L2239 354.796L2238.27 635.272L2139.04 636L2131.02 623.615L2028.87 610.502H1901.92L1839.91 601.032H1699.82L1629.05 587.19L1777.16 538.38H1652.4L1639.26 531.824H1512.31L1475.83 520.167H1254.76L1228.5 514.339H960L1096.44 410.163L1154.08 417.448L1165.02 410.163L1189.1 418.176L1283.22 381.751L1297.08 364.995L1321.88 362.81L1343.77 347.511L1353.99 359.167L1387.55 354.068L1499.91 314L1525.44 343.14L1617.38 317.643L1629.05 343.14L1652.4 340.955L1658.23 330.027L1669.91 344.597L1727.55 391.222L1764.76 356.253L1789.56 346.783L1804.15 378.837L1815.1 386.122L1845.01 348.24L1877.12 328.57L1898.27 359.896L1906.3 346.783L1912.14 348.24L1933.29 330.756L2018.66 378.109L2028.87 363.538L2125.91 400.692Z" fill="#050607" stroke="black"/>
<path d="M-196.478 382.171L-249 429.529V643H-156.357L-192.831 610.214H-69.5507L-94.3527 622.6H15.0676L-12.6522 610.214H59.5652L36.9517 601.471L45.7053 598.557L101.874 595.643L48.6232 570.871L1.20772 547.557L53 534.443H155.126L160.232 541H323.633L326.551 548.286H528.614L573.111 530.8H654.082L734.324 515.5L959 514.043L874.382 475.429L719.005 420.786L632.927 352.3H589.159L584.783 347.929L508.918 334.814L493.599 350.843L438.159 349.386L422.111 339.914L391.473 286L319.256 300.571L282.783 294.743L269.652 307.857L203.271 304.214L173.362 325.343L63.942 377.071L58.1063 371.243L30.3865 389.457L-17.7585 352.3L-27.2415 357.4L-41.1015 347.2L-131.556 394.557L-145.415 406.214L-165.111 412.771L-196.478 382.171Z" fill="#050607" stroke="black"/>
<g filter="url(#filter1_f)">
<path d="M106 834L1127.5 575H1456L1815.5 730V1000H106V834Z" fill="#E10234" fill-opacity="0.1"/>
</g>
<defs>
<filter id="filter0_f" x="-100" y="139" width="2120" height="476" filterUnits="userSpaceOnUse" color-interpolation-filters="sRGB">
<feFlood flood-opacity="0" result="BackgroundImageFix"/>
<feBlend mode="normal" in="SourceGraphic" in2="BackgroundImageFix" result="shape"/>
<feGaussianBlur stdDeviation="50" result="effect1_foregroundBlur"/>
</filter>
<filter id="filter1_f" x="-94" y="375" width="2109.5" height="825" filterUnits="userSpaceOnUse" color-interpolation-filters="sRGB">
<feFlood flood-opacity="0" result="BackgroundImageFix"/>
<feBlend mode="normal" in="SourceGraphic" in2="BackgroundImageFix" result="shape"/>
<feGaussianBlur stdDeviation="100" result="effect1_foregroundBlur"/>
</filter>
<linearGradient id="paint0_linear" x1="960" y1="0" x2="960" y2="554.882" gradientUnits="userSpaceOnUse">
<stop stop-color="#350207"/>
<stop offset="0.46875" stop-color="#87021B"/>
<stop offset="1" stop-color="#E10234"/>
</linearGradient>
</defs>
</svg>
