<svg width="960" height="359" viewBox="0 0 960 359" fill="none" xmlns="http://www.w3.org/2000/svg">
<path d="M-196.478 97.1714L-249 144.529V358H-156.357L-192.831 325.214H-69.5507L-94.3527 337.6H15.0676L-12.6522 325.214H59.5652L36.9517 316.471L45.7053 313.557L101.874 310.643L48.6232 285.871L1.20772 262.557L53 249.443H155.126L160.232 256H323.633L326.551 263.286H528.614L573.111 245.8H654.082L734.324 230.5L959 229.043L874.382 190.429L719.005 135.786L632.927 67.3H589.159L584.783 62.9286L508.918 49.8143L493.599 65.8429L438.159 64.3857L422.111 54.9143L391.473 1L319.256 15.5714L282.783 9.74286L269.652 22.8571L203.271 19.2143L173.362 40.3429L63.942 92.0714L58.1063 86.2429L30.3865 104.457L-17.7585 67.3L-27.2415 72.4L-41.1015 62.2L-131.556 109.557L-145.415 121.214L-165.111 127.771L-196.478 97.1714Z" fill="#050607" stroke="black"/>
</svg>
