<svg width="1920" height="476" viewBox="0 0 1920 476" fill="none" xmlns="http://www.w3.org/2000/svg">
<g filter="url(#filter0_f)">
<path d="M73.3966 174.836L0 155.269V376H1920V100L1805.46 164.194L1769.47 155.269L1756.84 128.836L1715.7 155.269L1656.8 174.836L1579.66 155.269L1517.02 144.627L1436.14 128.836L1379.11 155.269L1271.59 187.881L1176.68 198.522H1115.91C1087.86 207.333 1029.89 227.015 1022.41 235.254C1013.06 245.552 924.237 255.164 915.354 253.791C906.472 252.418 836.348 203.672 827.465 198.522C820.359 194.403 738.486 167.97 698.437 155.269L496.012 174.836L458.612 144.627L399.24 128.836H234.682L148.663 144.627L73.3966 174.836Z" fill="#E10234" fill-opacity="0.3"/>
</g>
<defs>
<filter id="filter0_f" x="-100" y="0" width="2120" height="476" filterUnits="userSpaceOnUse" color-interpolation-filters="sRGB">
<feFlood flood-opacity="0" result="BackgroundImageFix"/>
<feBlend mode="normal" in="SourceGraphic" in2="BackgroundImageFix" result="shape"/>
<feGaussianBlur stdDeviation="50" result="effect1_foregroundBlur"/>
</filter>
</defs>
</svg>
