<svg width="962" height="353" viewBox="0 0 962 353" fill="none" xmlns="http://www.w3.org/2000/svg">
<path d="M1167.91 116.692L1235.03 67.8824L1281 70.7964L1280.27 351.271L1181.04 352L1173.02 339.615L1070.87 326.502H943.922L796 339L741.821 317.032L671.049 303.19L819.159 254.38H694.396L681.264 247.824H554.312L517.832 236.167H296.761L270.495 230.339H2L138.436 126.163L196.075 133.448L207.019 126.163L231.096 134.177L325.216 97.7512L339.078 80.9955L363.885 78.81L385.773 63.5114L395.987 75.1675L429.549 70.0679L517 1.5L567.445 59.1403L659.375 33.6426L671.049 59.1403L694.396 56.9548L700.233 46.0272L711.907 60.5973L769.546 107.222L806.756 72.2534L831.562 62.7829L846.155 94.8372L857.099 102.122L887.013 64.2399L919.115 44.5702L940.274 75.896L948.3 62.7829L954.136 64.2399L975.295 46.7557L1060.66 94.1086L1070.87 79.5385L1167.91 116.692Z" fill="#050607" stroke="black"/>
</svg>
